<svg xmlns="http://www.w3.org/2000/svg" fill="white" viewBox="0 0 24 24">
  <path d="M12 0C5.373 0 0 5.372 0 12c0 6.627 5.373 12 12 12s12-5.373 12-12C24 5.372 18.627 0 12 0zm5.451 17.451a.75.75 0 01-1.034.259c-2.822-1.666-6.381-2.044-10.583-1.12a.75.75 0 01-.332-1.46c4.61-1.048 8.601-.612 11.772 1.27a.75.75 0 01.177 1.051zm1.377-3.451a.75.75 0 01-1.037.264c-3.24-1.915-8.177-2.473-12.006-1.353a.75.75 0 11-.412-1.445c4.298-1.227 9.689-.601 13.374 1.606a.75.75 0 01.081 1.072zm.125-3.6c-3.75-2.245-10.435-2.447-14.187-1.34a.75.75 0 11-.426-1.438c4.234-1.253 11.438-1.017 15.652 1.58a.75.75 0 01-.79 1.198z"/>
</svg>